<mxfile host="app.diagrams.net" modified="2022-11-28T18:49:44.318Z" agent="5.0 (Macintosh; Intel Mac OS X 10_15_7) AppleWebKit/605.1.15 (KHTML, like Gecko) Version/15.5 Safari/605.1.15" etag="6OzNCHfiusxgAp0ZiOQj" version="20.6.0" type="github">
  <diagram id="C5RBs43oDa-KdzZeNtuy" name="Page-1">
    <mxGraphModel dx="2066" dy="1202" grid="1" gridSize="10" guides="1" tooltips="1" connect="1" arrows="1" fold="1" page="1" pageScale="1" pageWidth="827" pageHeight="1169" math="0" shadow="0">
      <root>
        <mxCell id="WIyWlLk6GJQsqaUBKTNV-0" />
        <mxCell id="WIyWlLk6GJQsqaUBKTNV-1" parent="WIyWlLk6GJQsqaUBKTNV-0" />
        <mxCell id="WIyWlLk6GJQsqaUBKTNV-3" value="&lt;div style=&quot;text-align: start;&quot;&gt;MySQL/PostgreSQl&lt;/div&gt;" style="rounded=1;whiteSpace=wrap;html=1;fontSize=12;glass=0;strokeWidth=1;shadow=0;" parent="WIyWlLk6GJQsqaUBKTNV-1" vertex="1">
          <mxGeometry x="353.5" y="210" width="190" height="40" as="geometry" />
        </mxCell>
        <mxCell id="WIyWlLk6GJQsqaUBKTNV-7" value="Prisma JS (ORM)" style="rounded=1;whiteSpace=wrap;html=1;fontSize=12;glass=0;strokeWidth=1;shadow=0;" parent="WIyWlLk6GJQsqaUBKTNV-1" vertex="1">
          <mxGeometry x="388.5" y="330" width="120" height="40" as="geometry" />
        </mxCell>
        <mxCell id="YjCvzoe_hoBIYKLKPIZ7-22" value="" style="edgeStyle=orthogonalEdgeStyle;rounded=0;orthogonalLoop=1;jettySize=auto;html=1;fontColor=#000000;" parent="WIyWlLk6GJQsqaUBKTNV-1" target="WIyWlLk6GJQsqaUBKTNV-3" edge="1">
          <mxGeometry relative="1" as="geometry">
            <mxPoint x="613.5" y="230" as="sourcePoint" />
          </mxGeometry>
        </mxCell>
        <mxCell id="YjCvzoe_hoBIYKLKPIZ7-1" value="DataBase" style="ellipse;whiteSpace=wrap;html=1;fontColor=#000000;" parent="WIyWlLk6GJQsqaUBKTNV-1" vertex="1">
          <mxGeometry x="603.5" y="190" width="120" height="80" as="geometry" />
        </mxCell>
        <mxCell id="YjCvzoe_hoBIYKLKPIZ7-2" value="" style="endArrow=classic;startArrow=classic;html=1;rounded=0;fontColor=#000000;entryX=0.5;entryY=1;entryDx=0;entryDy=0;" parent="WIyWlLk6GJQsqaUBKTNV-1" source="WIyWlLk6GJQsqaUBKTNV-7" target="WIyWlLk6GJQsqaUBKTNV-3" edge="1">
          <mxGeometry width="50" height="50" relative="1" as="geometry">
            <mxPoint x="373.5" y="300" as="sourcePoint" />
            <mxPoint x="423.5" y="250" as="targetPoint" />
          </mxGeometry>
        </mxCell>
        <mxCell id="YjCvzoe_hoBIYKLKPIZ7-3" value="Express Js/ Nest js" style="rounded=1;whiteSpace=wrap;html=1;fontColor=#000000;" parent="WIyWlLk6GJQsqaUBKTNV-1" vertex="1">
          <mxGeometry x="388.5" y="450" width="120" height="60" as="geometry" />
        </mxCell>
        <mxCell id="YjCvzoe_hoBIYKLKPIZ7-4" value="" style="endArrow=classic;startArrow=classic;html=1;rounded=0;fontColor=#000000;entryX=0.5;entryY=1;entryDx=0;entryDy=0;exitX=0.5;exitY=0;exitDx=0;exitDy=0;" parent="WIyWlLk6GJQsqaUBKTNV-1" source="YjCvzoe_hoBIYKLKPIZ7-3" target="WIyWlLk6GJQsqaUBKTNV-7" edge="1">
          <mxGeometry width="50" height="50" relative="1" as="geometry">
            <mxPoint x="563.5" y="730" as="sourcePoint" />
            <mxPoint x="613.5" y="680" as="targetPoint" />
            <Array as="points" />
          </mxGeometry>
        </mxCell>
        <mxCell id="YjCvzoe_hoBIYKLKPIZ7-5" value="API" style="ellipse;whiteSpace=wrap;html=1;fontColor=#000000;" parent="WIyWlLk6GJQsqaUBKTNV-1" vertex="1">
          <mxGeometry x="653.5" y="440" width="120" height="80" as="geometry" />
        </mxCell>
        <mxCell id="YjCvzoe_hoBIYKLKPIZ7-8" value="" style="endArrow=classic;startArrow=classic;html=1;rounded=0;fontColor=#000000;entryX=0.5;entryY=1;entryDx=0;entryDy=0;exitX=0.5;exitY=0;exitDx=0;exitDy=0;" parent="WIyWlLk6GJQsqaUBKTNV-1" target="YjCvzoe_hoBIYKLKPIZ7-3" edge="1" source="YjCvzoe_hoBIYKLKPIZ7-10">
          <mxGeometry width="50" height="50" relative="1" as="geometry">
            <mxPoint x="513.5" y="600" as="sourcePoint" />
            <mxPoint x="613.5" y="680" as="targetPoint" />
          </mxGeometry>
        </mxCell>
        <mxCell id="YjCvzoe_hoBIYKLKPIZ7-10" value="Next Js" style="rounded=1;whiteSpace=wrap;html=1;fontColor=#000000;" parent="WIyWlLk6GJQsqaUBKTNV-1" vertex="1">
          <mxGeometry x="388.5" y="585" width="120" height="60" as="geometry" />
        </mxCell>
        <mxCell id="YjCvzoe_hoBIYKLKPIZ7-11" value="" style="endArrow=classic;startArrow=classic;html=1;rounded=0;fontColor=#000000;entryX=0.5;entryY=1;entryDx=0;entryDy=0;exitX=0.5;exitY=0;exitDx=0;exitDy=0;" parent="WIyWlLk6GJQsqaUBKTNV-1" source="YjCvzoe_hoBIYKLKPIZ7-13" target="YjCvzoe_hoBIYKLKPIZ7-9" edge="1">
          <mxGeometry width="50" height="50" relative="1" as="geometry">
            <mxPoint x="433.5" y="750" as="sourcePoint" />
            <mxPoint x="403.5" y="680" as="targetPoint" />
          </mxGeometry>
        </mxCell>
        <mxCell id="YjCvzoe_hoBIYKLKPIZ7-13" value="SASS/SCSS" style="rounded=1;whiteSpace=wrap;html=1;fontColor=#000000;" parent="WIyWlLk6GJQsqaUBKTNV-1" vertex="1">
          <mxGeometry x="388.5" y="860" width="120" height="60" as="geometry" />
        </mxCell>
        <mxCell id="YjCvzoe_hoBIYKLKPIZ7-14" value="" style="endArrow=classic;startArrow=classic;html=1;rounded=0;fontColor=#000000;exitX=1;exitY=0.5;exitDx=0;exitDy=0;" parent="WIyWlLk6GJQsqaUBKTNV-1" source="YjCvzoe_hoBIYKLKPIZ7-13" edge="1" target="YjCvzoe_hoBIYKLKPIZ7-15">
          <mxGeometry width="50" height="50" relative="1" as="geometry">
            <mxPoint x="573.5" y="810" as="sourcePoint" />
            <mxPoint x="643.5" y="780" as="targetPoint" />
          </mxGeometry>
        </mxCell>
        <mxCell id="YjCvzoe_hoBIYKLKPIZ7-15" value="Styling" style="rounded=1;whiteSpace=wrap;html=1;fontColor=#000000;" parent="WIyWlLk6GJQsqaUBKTNV-1" vertex="1">
          <mxGeometry x="633.5" y="860" width="120" height="60" as="geometry" />
        </mxCell>
        <mxCell id="YjCvzoe_hoBIYKLKPIZ7-21" value="" style="endArrow=classic;html=1;rounded=0;fontColor=#000000;entryX=1;entryY=0.5;entryDx=0;entryDy=0;exitX=0;exitY=0.5;exitDx=0;exitDy=0;" parent="WIyWlLk6GJQsqaUBKTNV-1" source="YjCvzoe_hoBIYKLKPIZ7-5" target="YjCvzoe_hoBIYKLKPIZ7-3" edge="1">
          <mxGeometry width="50" height="50" relative="1" as="geometry">
            <mxPoint x="563.5" y="730" as="sourcePoint" />
            <mxPoint x="613.5" y="680" as="targetPoint" />
          </mxGeometry>
        </mxCell>
        <mxCell id="YjCvzoe_hoBIYKLKPIZ7-25" value="BACKEND" style="rounded=1;whiteSpace=wrap;html=1;fontColor=#000000;" parent="WIyWlLk6GJQsqaUBKTNV-1" vertex="1">
          <mxGeometry x="120" y="305" width="120" height="90" as="geometry" />
        </mxCell>
        <mxCell id="YjCvzoe_hoBIYKLKPIZ7-26" value="" style="endArrow=classic;html=1;rounded=0;fontColor=#000000;entryX=1;entryY=0.5;entryDx=0;entryDy=0;exitX=0;exitY=0.5;exitDx=0;exitDy=0;" parent="WIyWlLk6GJQsqaUBKTNV-1" source="YjCvzoe_hoBIYKLKPIZ7-3" target="YjCvzoe_hoBIYKLKPIZ7-25" edge="1">
          <mxGeometry width="50" height="50" relative="1" as="geometry">
            <mxPoint x="563.5" y="730" as="sourcePoint" />
            <mxPoint x="613.5" y="680" as="targetPoint" />
            <Array as="points">
              <mxPoint x="343.5" y="440" />
            </Array>
          </mxGeometry>
        </mxCell>
        <mxCell id="YjCvzoe_hoBIYKLKPIZ7-27" value="" style="endArrow=classic;html=1;rounded=0;fontColor=#000000;exitX=0;exitY=0.5;exitDx=0;exitDy=0;entryX=1;entryY=0.5;entryDx=0;entryDy=0;" parent="WIyWlLk6GJQsqaUBKTNV-1" source="WIyWlLk6GJQsqaUBKTNV-7" edge="1" target="YjCvzoe_hoBIYKLKPIZ7-25">
          <mxGeometry width="50" height="50" relative="1" as="geometry">
            <mxPoint x="323.5" y="330" as="sourcePoint" />
            <mxPoint x="283.5" y="385" as="targetPoint" />
          </mxGeometry>
        </mxCell>
        <mxCell id="YjCvzoe_hoBIYKLKPIZ7-28" value="" style="endArrow=classic;html=1;rounded=0;fontColor=#000000;exitX=0;exitY=0.5;exitDx=0;exitDy=0;entryX=1;entryY=0.5;entryDx=0;entryDy=0;" parent="WIyWlLk6GJQsqaUBKTNV-1" source="WIyWlLk6GJQsqaUBKTNV-3" edge="1" target="YjCvzoe_hoBIYKLKPIZ7-25">
          <mxGeometry width="50" height="50" relative="1" as="geometry">
            <mxPoint x="273.5" y="290" as="sourcePoint" />
            <mxPoint x="283.5" y="390" as="targetPoint" />
          </mxGeometry>
        </mxCell>
        <mxCell id="YjCvzoe_hoBIYKLKPIZ7-29" value="FRONTEND" style="rounded=1;whiteSpace=wrap;html=1;fontColor=#000000;" parent="WIyWlLk6GJQsqaUBKTNV-1" vertex="1">
          <mxGeometry x="120" y="700" width="120" height="100" as="geometry" />
        </mxCell>
        <mxCell id="YjCvzoe_hoBIYKLKPIZ7-31" value="" style="endArrow=classic;html=1;rounded=0;fontColor=#000000;entryX=1;entryY=0.5;entryDx=0;entryDy=0;exitX=0;exitY=0.5;exitDx=0;exitDy=0;" parent="WIyWlLk6GJQsqaUBKTNV-1" source="YjCvzoe_hoBIYKLKPIZ7-13" target="YjCvzoe_hoBIYKLKPIZ7-29" edge="1">
          <mxGeometry width="50" height="50" relative="1" as="geometry">
            <mxPoint x="323.5" y="800" as="sourcePoint" />
            <mxPoint x="373.5" y="750" as="targetPoint" />
          </mxGeometry>
        </mxCell>
        <mxCell id="YjCvzoe_hoBIYKLKPIZ7-33" value="" style="endArrow=classic;html=1;rounded=0;fontColor=#000000;exitX=0;exitY=0.5;exitDx=0;exitDy=0;entryX=1;entryY=0.5;entryDx=0;entryDy=0;" parent="WIyWlLk6GJQsqaUBKTNV-1" source="YjCvzoe_hoBIYKLKPIZ7-9" target="YjCvzoe_hoBIYKLKPIZ7-29" edge="1">
          <mxGeometry width="50" height="50" relative="1" as="geometry">
            <mxPoint x="293.5" y="610" as="sourcePoint" />
            <mxPoint x="343.5" y="560" as="targetPoint" />
          </mxGeometry>
        </mxCell>
        <mxCell id="YjCvzoe_hoBIYKLKPIZ7-36" value="WebStore Code/Data Structure" style="rounded=1;whiteSpace=wrap;html=1;fontColor=#000000;" parent="WIyWlLk6GJQsqaUBKTNV-1" vertex="1">
          <mxGeometry x="250" y="50" width="360" height="70" as="geometry" />
        </mxCell>
        <mxCell id="YjCvzoe_hoBIYKLKPIZ7-43" value="GitKraken&lt;br&gt;(Git Management)" style="rounded=1;whiteSpace=wrap;html=1;fontColor=#000000;" parent="WIyWlLk6GJQsqaUBKTNV-1" vertex="1">
          <mxGeometry x="10" y="520" width="120" height="60" as="geometry" />
        </mxCell>
        <mxCell id="YjCvzoe_hoBIYKLKPIZ7-44" value="" style="endArrow=classic;html=1;rounded=0;fontColor=#000000;entryX=0;entryY=0.5;entryDx=0;entryDy=0;exitX=0.5;exitY=0;exitDx=0;exitDy=0;" parent="WIyWlLk6GJQsqaUBKTNV-1" source="YjCvzoe_hoBIYKLKPIZ7-43" target="YjCvzoe_hoBIYKLKPIZ7-25" edge="1">
          <mxGeometry width="50" height="50" relative="1" as="geometry">
            <mxPoint x="94.5" y="490" as="sourcePoint" />
            <mxPoint x="144.5" y="440" as="targetPoint" />
          </mxGeometry>
        </mxCell>
        <mxCell id="YjCvzoe_hoBIYKLKPIZ7-45" value="" style="endArrow=classic;html=1;rounded=0;fontColor=#000000;entryX=0;entryY=0.5;entryDx=0;entryDy=0;exitX=0.5;exitY=1;exitDx=0;exitDy=0;" parent="WIyWlLk6GJQsqaUBKTNV-1" source="YjCvzoe_hoBIYKLKPIZ7-43" target="YjCvzoe_hoBIYKLKPIZ7-29" edge="1">
          <mxGeometry width="50" height="50" relative="1" as="geometry">
            <mxPoint x="94.5" y="620" as="sourcePoint" />
            <mxPoint x="144.5" y="570" as="targetPoint" />
          </mxGeometry>
        </mxCell>
        <mxCell id="YjCvzoe_hoBIYKLKPIZ7-9" value="React Js" style="rounded=1;whiteSpace=wrap;html=1;fontColor=#000000;" parent="WIyWlLk6GJQsqaUBKTNV-1" vertex="1">
          <mxGeometry x="388.5" y="720" width="120" height="60" as="geometry" />
        </mxCell>
        <mxCell id="-YdOtruFDDm-r754pXnK-1" value="" style="endArrow=classic;startArrow=classic;html=1;rounded=0;entryX=0.5;entryY=1;entryDx=0;entryDy=0;exitX=0.5;exitY=0;exitDx=0;exitDy=0;" edge="1" parent="WIyWlLk6GJQsqaUBKTNV-1" source="YjCvzoe_hoBIYKLKPIZ7-9" target="YjCvzoe_hoBIYKLKPIZ7-10">
          <mxGeometry width="50" height="50" relative="1" as="geometry">
            <mxPoint x="423.5" y="710" as="sourcePoint" />
            <mxPoint x="473.5" y="660" as="targetPoint" />
          </mxGeometry>
        </mxCell>
        <mxCell id="-YdOtruFDDm-r754pXnK-2" value="" style="endArrow=classic;html=1;rounded=0;exitX=0;exitY=0.5;exitDx=0;exitDy=0;entryX=1;entryY=0.5;entryDx=0;entryDy=0;" edge="1" parent="WIyWlLk6GJQsqaUBKTNV-1" source="YjCvzoe_hoBIYKLKPIZ7-10" target="YjCvzoe_hoBIYKLKPIZ7-29">
          <mxGeometry width="50" height="50" relative="1" as="geometry">
            <mxPoint x="310" y="620" as="sourcePoint" />
            <mxPoint x="290" y="640" as="targetPoint" />
          </mxGeometry>
        </mxCell>
      </root>
    </mxGraphModel>
  </diagram>
</mxfile>
